<?xml version="1.0" encoding="UTF-8"?>
<!DOCTYPE svg PUBLIC "-//W3C//DTD SVG 1.1//EN" "http://www.w3.org/Graphics/SVG/1.1/DTD/svg11.dtd">
<!-- Creator: CorelDRAW 2020 (64-Bit) -->
<svg xmlns="http://www.w3.org/2000/svg" xml:space="preserve" width="250px" height="250px" version="1.1" style="shape-rendering:geometricPrecision; text-rendering:geometricPrecision; image-rendering:optimizeQuality; fill-rule:evenodd; clip-rule:evenodd"
viewBox="0 0 250 250"
 xmlns:xlink="http://www.w3.org/1999/xlink"
 xmlns:xodm="http://www.corel.com/coreldraw/odm/2003">
 <defs>
  <style type="text/css">
   <![CDATA[
    .fil0 {fill:#FEFEFE}
    .fil1 {fill:#7A374A}
   ]]>
  </style>
 </defs>
  <g>
   <circle class="fil0" cx="72.96" cy="122.12" r="69.79"/>
   <g>
    <path class="fil1" d="M62.32 68.46c-32.8,21.9 -39.8,58.1 -9.74,84.94l-9.33 7.05c-7.13,-7 -9.46,-9.94 -14.24,-18.46 -4.4,-9.14 -6.71,-24.81 -2.76,-37.62 5.97,-19.4 25.63,-34.31 36.07,-35.91z"/>
    <path class="fil1" d="M62.7 68.46c32.8,21.9 39.8,58.1 9.74,84.94l9.33 7.05c7.13,-7 9.46,-9.94 14.24,-18.46 4.4,-9.14 6.71,-24.81 2.76,-37.62 -5.97,-19.4 -25.64,-34.31 -36.07,-35.91z"/>
    <path class="fil1" d="M83.6 175.78c32.8,-21.9 39.8,-58.1 9.74,-84.94l9.33 -7.05c7.13,6.99 9.46,9.93 14.24,18.46 4.4,9.14 6.71,24.81 2.76,37.62 -5.97,19.4 -25.63,34.31 -36.07,35.91z"/>
    <path class="fil1" d="M83.22 175.78c-32.8,-21.9 -39.8,-58.1 -9.74,-84.94l-9.33 -7.05c-7.13,6.99 -9.46,9.93 -14.24,18.46 -4.4,9.14 -6.71,24.81 -2.76,37.62 5.97,19.4 25.64,34.31 36.07,35.91z"/>
   </g>
  </g>
</svg>
